<svg width="30" height="17" viewBox="0 0 30 17" fill="none" xmlns="http://www.w3.org/2000/svg">
<path d="M0 8.00425C0 8.00425 5.69084 -0.366741 14.9643 0.0125079C24.2378 0.391757 26.9703 4.65612 30 8.00425C30 8.00425 26.0197 14.7643 18.208 15.9329C10.3964 17.1015 4.1583 13.9427 0 8.00425Z" fill="#005148"/>
<path d="M9.55947 6.41163C9.54054 6.41902 8.90808 6.78484 8.79636 7.11039C8.68464 7.43594 8.95795 9.49127 8.95795 9.49127C8.95795 9.49127 9.10817 10.5572 9.52034 10.4505C9.93251 10.3437 10.1048 10.1544 10.1048 10.1544C10.1048 10.1544 10.3775 9.94704 10.784 10.6048V10.8297C10.784 10.8297 10.7449 10.966 11.1236 10.7821C11.1236 10.7821 11.1179 11.4694 11.4133 11.6231H11.5023C11.5023 11.6231 11.4966 12.8078 11.792 12.8313C12.0874 12.8548 12.5273 12.689 12.5273 12.689C12.5273 12.689 12.9843 12.3695 13.1346 11.4869L13.4129 11.2264L13.5575 10.7169V9.95308C13.5575 9.95308 14.1868 9.24224 14.1754 9.02946C14.164 8.816 13.88 8.68578 13.88 8.68578C13.88 8.68578 12.9111 7.99844 13.156 7.35942C13.156 7.35942 13.8074 8.44347 14.3925 8.3072C14.977 8.17094 14.9442 7.60241 14.9442 7.60241C14.9442 7.60241 14.5207 6.78484 13.8137 6.44721C13.8137 6.44721 13.8358 6.15119 14.1426 6.41163C14.4487 6.67207 14.7498 6.83183 14.7498 6.83183C14.7498 6.83183 15.0004 6.86136 15.1619 7.45943C15.1619 7.45943 15.184 7.84472 16.0532 7.98635C16.0532 7.98635 16.5765 8.15215 16.8327 8.53744C17.089 8.92273 17.3396 7.83868 17.3396 7.83868C17.3396 7.83868 17.2114 7.33525 17.5289 7.37083C17.8464 7.40641 18.0301 7.91587 18.0301 7.91587C18.0301 7.91587 18.3198 8.75693 18.4202 8.77439C18.4202 8.77439 18.9157 9.42616 19.2167 9.48523C19.5172 9.54429 19.456 9.37246 19.456 9.37246C19.456 9.37246 19.3392 8.91669 19.1385 8.68511C18.9377 8.45421 19.3442 7.83197 19.3442 7.83197C19.3442 7.83197 20.1799 7.66013 20.2462 7.34062C20.2462 7.34062 20.2797 7.08018 20.0569 6.90231C20.0569 6.90231 20.0512 6.59421 20.1402 6.50561C20.2292 6.417 20.5075 6.86673 20.5075 6.86673C20.5075 6.86673 20.9973 7.08555 21.1425 6.50561C21.1425 6.50561 20.4962 2.80978 17.89 1.89757C15.2838 0.985356 15.083 1.16323 15.083 1.16323C15.083 1.16323 13.1781 1.16323 11.7636 2.19358L13.3119 2.14995C13.3119 2.14995 13.7058 2.14592 13.7317 2.53323C13.7575 2.91986 13.9469 3.17694 13.9469 3.17694C13.9469 3.17694 14.2215 3.22057 14.2404 3.39778C14.2593 3.57499 13.2008 4.13614 13.1263 4.0811C13.0519 4.02606 12.9256 3.97437 13.2305 3.78508C13.5347 3.59579 13.7279 3.51256 13.7279 3.51256C13.7279 3.51256 13.8876 3.13331 13.0891 3.32327C13.0891 3.32327 12.3986 3.52464 12.1423 3.51256C11.8861 3.50048 11.229 3.59177 11.1362 3.76897C11.0434 3.94685 10.8616 3.8126 10.8541 4.04552C10.8465 4.27844 11.0175 4.51136 11.5667 4.58654C12.1158 4.66172 12.1903 4.48787 12.1903 4.48787C12.1903 4.48787 12.4724 4.11667 12.6952 4.19588C12.9181 4.27509 12.242 4.78791 12.242 4.78791C12.242 4.78791 12.1638 4.98123 11.3287 4.74025C10.4936 4.49928 10.1869 5.37726 10.1869 5.37726C10.1869 5.37726 10.1869 5.93036 9.72674 5.64172C9.2666 5.35376 8.99519 5.96123 8.99519 5.96123C8.99519 5.96123 9.04694 6.72309 9.57841 6.27739C9.57841 6.27739 9.74946 6.10354 10.1244 6.13508C10.4993 6.16663 10.6369 5.75181 10.6369 5.75181C10.6369 5.75181 10.8559 5.55044 11.1305 6.27671C11.4051 7.00299 11.5351 6.55729 11.5351 6.55729L11.3274 6.17401C11.3274 6.17401 11.3091 5.97264 11.4537 6.13441C11.5982 6.29618 11.8141 6.59622 11.9586 6.37941C11.9586 6.37941 12.4636 6.2257 12.1032 6.84122C11.7428 7.45742 10.1945 6.56065 10.1945 6.56065C10.1945 6.56065 9.81574 6.31296 9.55947 6.41163Z" fill="white"/>
<path d="M13.2683 14.1544C13.2683 14.1544 12.9489 13.7435 13.6173 13.3648C14.2858 12.9862 15.0729 13.0802 15.0729 13.0802C15.0729 13.0802 16.0979 13.2306 16.625 13.5696C17.152 13.9093 17.2858 13.3326 17.2858 13.3326C17.2858 13.3326 18.244 12.482 18.7559 13.0694C18.7559 13.0694 18.2213 13.9724 16.2463 14.3437C14.2712 14.7149 13.2683 14.1544 13.2683 14.1544Z" fill="white"/>
<path d="M17.8356 11.643C17.8356 11.643 17.5907 10.3556 19.0759 10.1186C19.0759 10.1186 20.0265 10.0005 20.4128 9.5736C20.7991 9.14736 20.9102 10.0555 20.9102 10.0555C20.9102 10.0555 20.19 12.2035 19.5064 12.4639C19.5064 12.4639 19.3492 12.562 19.1807 12.4009C19.0115 12.2398 18.9326 12.5163 18.9326 12.5163C18.9326 12.5163 18.6543 12.6962 18.7123 12.2471C18.7123 12.2471 18.5451 12.2277 18.292 12.5176C18.292 12.5176 17.9189 12.7204 17.8356 11.643Z" fill="white"/>
<path d="M21.2049 9.15719C21.2138 9.14175 21.4 7.81848 21.2605 7.30287C21.121 6.78726 20.7675 6.99203 20.7675 6.99203C20.7675 6.99203 20.7038 7.12228 20.7839 7.19008C20.8641 7.25789 20.8287 7.40895 20.8287 7.40895C20.8287 7.40895 20.4639 7.82385 20.6703 8.46904C20.8767 9.11422 21.0964 9.34987 21.2049 9.15719Z" fill="white"/>
<path d="M19.2944 8.45804C19.2944 8.45804 19.4308 8.15593 19.6814 8.4755C19.9319 8.79507 19.8486 8.81588 19.8486 8.81588C19.8486 8.81588 19.3809 9.10659 19.2944 8.45804Z" fill="white"/>
<path d="M19.6206 9.10644C19.6206 9.10644 19.7626 8.86341 20.0492 9.12994C20.3357 9.39647 20.2051 9.44682 20.2051 9.44682C20.2051 9.44682 19.921 9.67643 19.6648 9.44682C19.6648 9.44682 19.3978 9.33135 19.6206 9.10644Z" fill="white"/>
<path d="M13.7588 9.98918C13.837 9.89049 13.9999 9.31781 14.3155 9.54675C14.3155 9.54675 14.4935 9.87035 14.1261 10.3443C14.1261 10.3443 13.9254 10.9251 13.9292 11.0949C13.933 11.2648 13.8068 11.2923 13.8068 11.2923C13.8068 11.2923 13.6022 11.446 13.6729 10.8029C13.7436 10.1597 13.7588 9.98918 13.7588 9.98918Z" fill="white"/>
<path d="M16.3877 8.33045C16.3877 8.33045 15.6972 8.55276 16.2621 8.83149C16.827 9.11022 16.7746 8.68037 16.7746 8.68037C16.7746 8.68037 16.5575 8.31568 16.3877 8.33045Z" fill="white"/>
<path d="M9.25513 5.32562C9.25513 5.32562 9.55936 4.32662 9.99741 4.15677C10.4355 3.98691 10.6734 4.23599 10.6734 4.23599C10.6734 4.23599 10.7144 4.54012 10.3692 4.52401C10.3692 4.52401 9.5966 5.21149 9.56378 5.32562C9.53096 5.43975 9.25513 5.32562 9.25513 5.32562Z" fill="white"/>
<path d="M10.0454 3.64724C10.0517 3.63247 10.4872 3.01157 10.4872 3.01157C10.4872 3.01157 11.1222 2.72697 11.0105 3.26396C10.8994 3.80095 10.4575 3.87613 10.4575 3.87613C10.4575 3.87613 9.91218 3.97144 10.0454 3.64724Z" fill="white"/>
</svg>
